<svg width="21" height="21" viewBox="0 0 21 21" fill="none" xmlns="http://www.w3.org/2000/svg">
<path fill-rule="evenodd" clip-rule="evenodd" d="M0.601318 4.97432C0.601318 3.72579 1.16312 2.52873 2.16369 1.64637C3.16426 0.764021 4.52101 0.268433 5.93444 0.268433C7.34948 0.268433 8.70623 0.764021 9.70518 1.64637C10.7057 2.52873 11.2676 3.72579 11.2676 4.97432V12.0331C11.2676 13.2817 10.7057 14.4787 9.70518 15.3611C8.70623 16.2434 7.34948 16.739 5.93444 16.739C4.52101 16.739 3.16426 16.2434 2.16369 15.3611C1.16312 14.4787 0.601318 13.2817 0.601318 12.0331V4.97432ZM5.93444 2.62137C5.22691 2.62137 4.54854 2.8699 4.04987 3.31108C3.54959 3.75226 3.26788 4.35079 3.26788 4.97432V12.0331C3.26788 12.6567 3.54959 13.2552 4.04987 13.6964C4.54854 14.1376 5.22691 14.3861 5.93444 14.3861C6.64196 14.3861 7.32033 14.1376 7.82062 13.6964C8.3209 13.2552 8.60099 12.6567 8.60099 12.0331V4.97432C8.60099 4.35079 8.3209 3.75226 7.82062 3.31108C7.32033 2.8699 6.64196 2.62137 5.93444 2.62137ZM12.6016 10.8567H16.6007C16.9552 10.8567 17.2936 10.9802 17.5446 11.2008C17.7939 11.4214 17.9348 11.7214 17.9348 12.0331C17.9348 12.3449 17.7939 12.6449 17.5446 12.8655C17.2936 13.0861 16.9552 13.2096 16.6007 13.2096C15.5402 13.2096 14.5234 13.5817 13.7722 14.2434C13.0226 14.9052 12.6016 15.8037 12.6016 16.739V19.092C12.6016 19.4037 12.7425 19.7037 12.9918 19.9243C13.2428 20.1449 13.5812 20.2684 13.9341 20.2684H20.6013V17.9155H15.2682V16.739C15.2682 16.4273 15.4091 16.1273 15.6584 15.9067C15.9093 15.6861 16.2477 15.5625 16.6007 15.5625C17.6628 15.5625 18.6795 15.1905 19.4291 14.5287C20.1804 13.867 20.6013 12.9699 20.6013 12.0331C20.6013 11.0978 20.1804 10.1993 19.4291 9.53755C18.6795 8.87578 17.6628 8.50373 16.6007 8.50373H12.6016V10.8567Z" fill="#51C4E8"/>
</svg>
